<?xml version="1.0" standalone="no"?>
<!DOCTYPE svg PUBLIC "-//W3C//DTD SVG 20010904//EN"
 "http://www.w3.org/TR/2001/REC-SVG-20010904/DTD/svg10.dtd">
<svg version="1.0" xmlns="http://www.w3.org/2000/svg"
 width="959.000000pt" height="1280.000000pt" viewBox="0 0 959.000000 1280.000000"
 preserveAspectRatio="xMidYMid meet">
<metadata>
Created by potrace 1.16, written by Peter Selinger 2001-2019
</metadata>
<g transform="translate(0.000000,1280.000000) scale(0.100000,-0.100000)"
fill="#000000" stroke="none">
<path d="M9585 6970 c0 -3209 1 -4522 2 -2918 2 1605 2 4231 0 5835 -1 1605
-2 292 -2 -2917z"/>
<path d="M3994 11609 c-2 -4 -21 -7 -42 -5 -20 1 -64 -3 -97 -11 -166 -35
-211 -46 -226 -54 -9 -4 -48 -15 -86 -23 -139 -29 -256 -109 -459 -313 -124
-124 -279 -301 -321 -365 -16 -23 -43 -58 -60 -78 -18 -19 -33 -40 -33 -46 0
-7 -25 -44 -55 -82 -30 -39 -55 -73 -55 -76 0 -4 -14 -28 -100 -171 -20 -33
-49 -89 -64 -125 -16 -36 -40 -90 -55 -120 -14 -30 -26 -57 -26 -60 -4 -14
-20 -51 -46 -108 -16 -35 -29 -65 -29 -68 0 -3 -11 -29 -24 -57 -13 -29 -26
-63 -30 -77 -4 -14 -16 -43 -25 -65 -10 -22 -24 -58 -31 -80 -11 -34 -54 -150
-80 -220 -15 -38 -41 -120 -51 -159 -5 -21 -16 -51 -24 -67 -8 -15 -16 -36
-18 -46 -3 -19 -31 -100 -50 -143 -6 -14 -12 -32 -13 -40 -21 -114 -29 -150
-41 -178 -8 -19 -11 -43 -8 -55 5 -16 4 -18 -3 -8 -8 11 -11 9 -17 -8 -3 -11
-3 -25 0 -31 3 -5 2 -10 -3 -10 -5 0 -17 -33 -26 -72 -10 -40 -22 -78 -28 -85
-5 -7 -10 -50 -11 -97 -1 -47 -6 -86 -11 -86 -4 0 -5 -11 -2 -25 4 -16 2 -25
-5 -25 -6 0 -9 -6 -6 -13 3 -7 -1 -21 -9 -32 -8 -10 -14 -28 -14 -39 0 -12 -7
-34 -15 -50 -8 -15 -15 -41 -15 -57 0 -15 -4 -30 -9 -34 -6 -3 -13 -27 -16
-53 -4 -26 -14 -83 -22 -127 -9 -44 -16 -98 -16 -120 0 -27 -1 -31 -4 -12 -6
37 -18 34 -19 -5 -1 -18 -4 -76 -7 -128 -3 -59 -1 -100 5 -108 14 -16 1 -29
-14 -14 -20 20 -26 14 -33 -38 -4 -27 -11 -52 -16 -56 -5 -3 -9 -20 -9 -37 0
-18 -7 -41 -15 -51 -13 -17 -15 -18 -15 -3 0 29 -18 18 -30 -18 -12 -37 -7
-71 9 -61 5 3 12 -1 15 -10 10 -25 7 -34 -8 -28 -8 3 -17 1 -20 -4 -10 -16 5
-44 20 -38 19 7 17 -4 -3 -19 -18 -14 -21 -87 -3 -93 7 -3 7 -8 -1 -18 -6 -7
-8 -21 -5 -30 4 -11 1 -14 -10 -12 -14 3 -16 18 -15 108 2 74 -1 102 -8 94
-11 -10 -14 -34 -24 -181 -6 -84 -12 -99 -33 -82 -11 9 -14 8 -14 -3 0 -8 -10
-14 -27 -13 -14 0 -28 -6 -31 -14 -3 -8 0 -11 7 -7 6 4 14 0 17 -9 7 -17 -29
-59 -40 -48 -3 4 -6 0 -6 -8 0 -9 -13 -28 -30 -44 -23 -22 -30 -25 -30 -12 0
9 3 17 8 17 11 0 33 56 27 71 -3 8 7 28 21 44 14 17 30 37 35 45 8 13 11 13
23 -3 13 -16 15 -15 29 21 18 46 34 153 16 112 -10 -24 -11 -24 -25 -6 -8 11
-14 27 -14 35 -1 24 -39 -50 -40 -76 0 -12 -4 -24 -9 -28 -5 -3 -12 -19 -16
-35 -4 -17 -11 -30 -17 -30 -6 0 -7 9 -3 23 4 12 9 36 11 52 l5 30 -15 -25
c-8 -14 -15 -40 -16 -57 0 -32 -13 -43 -25 -23 -12 19 -25 0 -15 -21 9 -17 7
-19 -16 -19 -19 0 -25 -4 -20 -15 3 -8 0 -15 -7 -15 -16 0 -44 -33 -40 -46 2
-5 -22 -35 -52 -67 -30 -32 -55 -64 -55 -72 0 -8 -5 -15 -10 -15 -14 0 -76
-71 -72 -83 2 -5 -5 -7 -14 -3 -11 4 -18 0 -21 -14 -3 -11 -9 -20 -14 -20 -4
0 -43 -36 -86 -80 -43 -44 -83 -80 -90 -80 -7 0 -13 -3 -13 -7 0 -11 -67 -83
-77 -83 -4 0 -21 -11 -36 -24 -16 -14 -53 -41 -83 -62 -30 -20 -54 -42 -55
-48 0 -6 -21 -25 -47 -42 -26 -18 -46 -37 -45 -43 2 -6 -7 -16 -20 -22 -31
-17 -87 -78 -87 -98 -1 -14 -3 -13 -15 3 -14 19 -45 16 -45 -4 0 -5 -7 -10
-15 -10 -8 0 -15 -4 -15 -10 0 -5 -7 -10 -15 -10 -17 0 -20 -16 -5 -25 18 -11
0 -25 -33 -26 -24 -1 -26 -3 -10 -6 19 -4 21 -7 12 -24 -7 -14 -16 -18 -31
-13 -18 5 -20 3 -14 -20 3 -14 2 -26 -3 -26 -5 0 -11 8 -14 18 -2 9 -8 -8 -13
-38 l-9 -55 -6 85 c-3 47 -5 -707 -5 -1675 0 -968 1 -1732 3 -1697 4 60 5 62
25 51 16 -8 18 -13 8 -19 -11 -7 -11 -14 0 -39 7 -17 15 -31 19 -31 3 0 4 33
3 72 -3 62 -6 70 -17 55 -17 -23 -35 -22 -35 3 0 11 7 20 15 20 8 0 15 8 15
18 0 10 6 19 13 19 6 0 28 3 47 8 l35 7 -24 -26 c-21 -22 -22 -26 -7 -32 9 -3
16 -12 16 -19 0 -7 7 -18 15 -25 8 -7 15 -23 15 -35 0 -13 6 -25 13 -28 10 -4
13 2 9 19 -3 15 2 30 11 37 8 7 17 26 20 42 10 52 47 198 64 253 14 43 20 51
36 46 10 -3 23 -1 30 4 7 5 62 17 122 26 144 22 183 27 168 20 -24 -10 -14
-26 12 -20 18 5 25 2 25 -9 0 -8 2 -15 4 -15 4 0 104 43 151 65 80 38 144 63
148 58 4 -4 45 -9 100 -12 4 -1 7 -10 7 -21 0 -13 5 -18 15 -14 24 10 19 -49
-8 -79 -26 -31 -139 -64 -242 -72 -11 -1 -31 -2 -44 -3 -13 -1 -22 -5 -18 -8
3 -3 71 -5 150 -5 84 1 148 -2 151 -8 4 -5 0 -29 -8 -53 -8 -24 -14 -69 -14
-101 0 -31 -11 -94 -25 -140 -34 -117 -64 -238 -103 -422 -19 -88 -41 -189
-49 -225 -8 -36 -19 -90 -24 -120 -20 -121 -52 -308 -62 -360 -6 -30 -12 -68
-14 -85 -7 -70 -39 -294 -55 -380 -6 -33 -15 -87 -20 -120 -5 -33 -12 -78 -15
-100 -3 -22 -11 -71 -17 -110 -6 -38 -17 -88 -25 -110 -8 -22 -17 -89 -19
-150 -3 -60 -9 -123 -14 -139 -6 -16 -10 -42 -10 -57 l0 -29 1566 0 1567 0 -7
168 c-18 430 -26 1061 -15 1212 12 170 58 581 80 705 5 33 16 103 24 155 52
345 206 1060 285 1320 11 36 38 128 59 205 51 180 112 388 116 395 2 3 33 107
69 230 78 269 205 637 270 785 26 58 67 140 85 170 83 136 157 286 170 345 5
21 18 51 30 66 11 15 21 31 21 36 0 4 16 32 35 61 19 28 37 66 41 84 4 19 14
33 26 36 16 5 18 9 9 26 -18 32 -13 62 23 131 71 139 80 155 91 170 13 18 35
89 35 116 0 11 8 35 18 54 11 19 22 57 25 84 4 27 11 54 16 60 5 6 12 26 16
43 3 18 17 41 31 52 13 10 24 28 24 39 0 12 9 22 23 25 12 3 32 8 44 12 18 6
24 1 37 -29 8 -20 19 -36 25 -36 5 0 12 -19 16 -42 9 -58 42 -131 55 -123 6 3
10 -3 10 -15 0 -24 55 -100 72 -100 5 0 24 -14 41 -31 17 -17 50 -39 73 -49
45 -20 54 -41 54 -126 0 -23 5 -55 12 -71 l12 -28 4 25 c5 32 30 60 47 54 18
-7 28 13 16 33 -7 13 -10 14 -11 4 0 -8 -2 -12 -5 -9 -3 3 -3 13 1 22 5 13 15
15 55 10 39 -5 52 -3 74 14 74 58 171 63 326 17 87 -26 142 -30 224 -15 28 6
102 14 165 19 100 8 154 20 235 52 11 4 27 9 35 12 8 2 -21 8 -65 12 -44 4
-91 9 -105 11 -14 2 -53 4 -87 6 -48 2 -63 6 -63 18 0 8 -13 21 -29 28 -17 7
-32 21 -34 30 -3 9 -5 2 -6 -15 -1 -35 -3 -36 -38 -27 -17 5 -51 53 -58 84 -1
3 -6 16 -12 30 -5 14 -20 59 -33 100 -12 41 -26 83 -31 92 -5 10 -6 24 -3 32
3 8 -1 44 -10 79 -9 34 -18 88 -21 118 -12 146 -18 179 -31 179 -9 0 -14 11
-13 33 l1 32 7 -30 c3 -16 9 -25 13 -20 9 15 7 65 -3 71 -4 2 -6 11 -3 18 3 8
-4 16 -15 19 -12 3 -21 13 -20 24 1 16 2 16 6 1 2 -10 8 -18 12 -18 4 0 7 8 7
18 0 9 4 41 8 70 5 31 4 52 -2 52 -5 0 -12 39 -16 88 -4 48 -9 96 -11 107 -1
11 -3 48 -4 83 -1 48 -4 62 -16 62 -8 0 -15 4 -15 9 0 5 7 11 15 15 8 3 15 15
15 27 0 17 -3 19 -14 10 -9 -8 -16 -8 -20 -2 -4 5 -2 12 3 15 11 7 5 254 -7
287 -5 13 -10 51 -11 84 -1 38 -8 66 -18 77 -12 13 -14 30 -10 67 5 40 3 49
-8 45 -7 -3 -12 1 -12 8 2 22 -14 139 -28 203 -7 33 -16 94 -20 135 -4 41 -13
98 -21 127 -8 28 -14 71 -14 95 1 24 -3 67 -9 97 -6 29 -8 57 -5 62 3 5 0 9
-5 9 -6 0 -11 13 -11 29 0 16 -5 42 -11 58 -15 40 -31 124 -30 153 1 14 -4 36
-10 50 -17 37 -26 59 -45 120 -9 30 -38 107 -64 170 -26 63 -55 144 -64 180
-9 36 -21 74 -25 85 -5 11 -17 43 -26 70 -9 28 -27 73 -40 100 -139 303 -212
431 -374 650 -50 67 -215 235 -276 280 -22 17 -51 41 -65 54 -44 41 -244 188
-267 195 -11 4 -28 17 -37 30 -14 22 -147 106 -167 106 -5 0 -28 20 -52 44
-24 24 -52 48 -63 54 -67 36 -323 75 -358 55 -10 -5 -38 -7 -62 -3 -25 4 -47
3 -50 -1z m-112 -1114 c10 4 18 -4 24 -25 l9 -32 27 21 c27 22 58 28 58 12 0
-22 63 -71 90 -71 16 0 30 -7 34 -15 8 -21 34 -19 38 2 2 13 9 8 25 -19 15
-26 27 -36 38 -32 8 3 15 1 15 -5 0 -6 -5 -11 -11 -11 -8 0 -8 -5 1 -15 7 -8
19 -15 26 -15 10 0 13 -7 9 -23 -5 -17 1 -26 25 -40 29 -18 30 -18 30 2 0 29
12 26 38 -9 27 -37 54 -38 80 -5 22 27 42 33 42 11 0 -13 11 -19 85 -47 27
-10 28 -12 10 -19 -17 -6 -13 -9 20 -15 26 -6 40 -4 43 4 2 6 10 11 18 11 10
0 14 -12 14 -40 0 -36 3 -40 25 -40 23 0 25 -4 25 -40 0 -39 1 -40 34 -40 19
0 41 -3 50 -6 8 -3 22 3 33 15 20 24 39 27 46 9 4 -10 7 -10 17 -1 11 10 10
14 -3 19 -26 10 -21 36 6 32 14 -2 23 -11 25 -25 3 -23 11 -27 44 -24 10 1 27
-4 39 -13 12 -8 28 -12 36 -9 8 3 25 -5 38 -17 13 -12 28 -19 34 -16 5 4 15
-3 21 -14 6 -11 17 -20 25 -20 8 0 22 -12 32 -27 27 -44 209 -233 224 -233 4
0 17 -12 28 -26 11 -14 25 -23 30 -19 6 3 29 0 51 -6 42 -13 62 -42 96 -144 7
-22 24 -71 38 -109 27 -71 34 -140 16 -151 -5 -3 -11 1 -11 9 -1 9 -2 19 -4
24 -1 4 -5 25 -10 47 -4 22 -16 58 -26 80 -9 22 -20 50 -24 62 -4 14 -11 20
-21 16 -12 -4 -12 -8 3 -19 15 -11 16 -15 4 -23 -8 -5 -10 -14 -5 -22 10 -17
19 -53 24 -99 1 -10 3 -11 7 -2 2 6 8 12 13 12 10 0 7 -40 -4 -59 -5 -7 2 -36
17 -69 51 -115 62 -200 62 -512 0 -299 3 -270 -56 -605 -10 -55 -48 -216 -69
-290 -39 -139 -145 -337 -226 -423 -19 -20 -34 -30 -34 -23 0 6 -4 10 -9 7 -4
-3 -6 -17 -3 -31 2 -15 0 -25 -7 -25 -6 0 -11 6 -12 13 0 9 -2 9 -6 -1 -2 -6
-10 -9 -15 -6 -6 4 -16 0 -23 -9 -7 -9 -21 -18 -31 -20 -10 -1 -26 -7 -34 -12
-60 -39 -84 -43 -112 -18 -16 14 -20 14 -35 1 -20 -17 -51 -31 -73 -33 -8 -1
-20 -3 -26 -4 -7 0 -14 -10 -17 -21 -3 -13 -14 -20 -29 -20 -19 0 -34 -13 -59
-50 -19 -28 -41 -53 -50 -55 -9 -3 -27 -21 -40 -40 -13 -19 -28 -35 -32 -35
-4 0 -20 -8 -34 -17 -15 -10 -31 -18 -37 -18 -6 -1 -19 -5 -29 -9 -11 -5 -28
-4 -40 2 -12 6 -53 13 -91 17 -53 4 -74 11 -88 27 -15 17 -20 19 -33 8 -12
-10 -19 -10 -27 -2 -7 7 -29 12 -50 12 -31 0 -38 -4 -38 -20 0 -21 -24 -28
-35 -10 -3 6 -15 10 -25 10 -10 0 -20 5 -22 12 -3 8 -9 8 -24 0 -18 -11 -18
-11 4 -12 12 0 22 -4 22 -10 0 -13 -37 -13 -45 0 -3 5 -56 8 -123 7 -110 -2
-118 -1 -139 20 -12 13 -29 23 -36 23 -24 0 -92 97 -120 170 -22 60 -24 190
-2 190 8 0 15 9 15 21 0 11 5 29 10 40 8 14 7 19 -1 19 -7 0 -10 13 -7 38 4
26 -1 45 -15 65 -17 25 -18 33 -7 75 7 26 14 54 16 63 5 20 61 31 86 18 9 -5
35 -11 57 -14 32 -4 41 -2 41 9 0 8 -4 17 -9 20 -5 3 -7 15 -4 26 3 12 0 20
-6 20 -21 0 -8 54 13 58 14 3 17 0 13 -12 -7 -18 4 -21 20 -5 13 13 33 4 33
-17 0 -8 5 -14 10 -14 21 0 9 -19 -17 -28 -16 -6 -21 -11 -11 -11 15 -1 48
-51 48 -73 0 -22 -45 -104 -66 -121 -13 -10 -24 -23 -24 -28 0 -15 27 -39 34
-31 4 3 9 -4 13 -16 3 -12 12 -22 20 -22 9 0 13 -6 9 -15 -6 -17 22 -35 53
-35 11 0 26 -10 32 -22 16 -31 28 -38 67 -38 20 0 31 -4 27 -10 -3 -5 0 -10 7
-10 16 -1 58 -35 58 -48 0 -15 27 -35 32 -23 2 7 18 5 43 -4 37 -13 41 -13 58
7 22 27 22 38 -3 38 -11 0 -20 7 -20 15 0 11 11 15 40 15 22 0 40 5 40 10 0 6
35 10 86 10 l87 0 -6 81 c-4 45 -12 88 -18 95 -9 11 -6 14 20 14 35 0 38 6 15
39 -13 18 -18 20 -25 10 -6 -11 -9 -11 -13 1 -24 68 -27 72 -39 63 -12 -10
-83 -11 -92 -1 -12 11 58 48 114 59 49 10 66 11 81 1 11 -7 26 -12 33 -12 7 0
29 -14 50 -31 30 -25 43 -29 67 -24 24 5 38 1 69 -24 44 -35 51 -37 51 -16 0
8 9 15 19 15 14 0 18 5 14 21 -3 11 -12 23 -19 26 -19 7 -18 33 2 33 11 0 14
6 10 20 -3 11 -9 30 -12 43 -4 12 -11 28 -17 36 -12 14 -13 18 -15 94 -2 59
-19 62 -25 5 -3 -42 -4 -42 -5 8 -1 28 -8 56 -14 60 -18 13 -53 10 -51 -4 2
-6 -4 -9 -12 -6 -9 4 -15 0 -15 -9 0 -21 -53 -32 -77 -16 -10 6 -38 35 -62 62
-24 28 -60 65 -80 81 -37 31 -37 31 -23 69 11 27 20 37 37 37 41 0 85 21 85
40 0 11 5 22 10 25 6 3 10 1 10 -4 0 -6 18 -11 40 -11 22 0 40 -3 40 -7 0 -13
60 -43 85 -43 21 0 23 5 30 77 5 54 4 78 -4 81 -6 2 -11 23 -11 47 0 33 5 47
21 59 14 9 19 21 15 31 -3 9 0 23 8 31 13 12 15 11 19 -8 2 -13 5 1 6 30 0 28
-3 52 -9 52 -5 0 -7 13 -4 28 3 16 1 48 -6 71 -11 41 -13 43 -41 37 -16 -3
-29 -1 -29 4 0 5 -11 12 -25 16 -14 3 -25 12 -25 20 0 8 10 14 25 14 25 0 35
23 16 35 -14 8 -9 45 6 45 15 0 33 -32 33 -59 0 -12 5 -21 10 -21 6 0 10 15
10 33 0 38 10 56 30 54 36 -3 122 17 127 29 3 8 12 14 20 14 8 0 26 9 40 20
14 11 32 20 39 20 21 0 94 31 90 39 -2 3 16 15 40 26 28 12 44 26 44 37 0 10
7 18 15 18 8 0 15 5 15 10 0 6 9 30 21 54 26 57 22 89 -12 96 -15 3 -39 21
-55 40 -16 19 -37 42 -47 50 -10 8 -35 29 -56 45 -20 17 -48 37 -62 47 l-24
16 25 10 25 9 -23 7 c-12 4 -20 11 -17 16 3 5 0 32 -6 61 -10 45 -9 53 5 61
33 18 16 34 -51 47 -38 7 -99 14 -138 16 -78 5 -350 -21 -376 -36 -10 -5 -31
-9 -48 -9 -16 0 -32 -4 -35 -9 -3 -5 -22 -12 -41 -15 -50 -10 -140 -99 -142
-142 -1 -17 9 -71 22 -120 26 -96 25 -123 -2 -56 -9 23 -20 42 -24 42 -16 0
55 -160 74 -168 4 -2 7 -13 7 -23 0 -11 7 -33 15 -49 9 -17 12 -30 8 -30 -15
0 -83 115 -102 173 -7 20 -17 37 -22 37 -5 0 -9 7 -9 16 0 10 -6 14 -15 10 -8
-3 -15 -1 -15 4 0 6 5 10 10 10 6 0 10 5 10 10 0 22 -28 8 -35 -17 -5 -21 -8
-24 -16 -12 -7 12 -9 12 -9 -1 0 -9 -11 -31 -24 -51 -29 -43 -25 -85 10 -101
15 -7 24 -20 24 -35 0 -12 6 -23 13 -23 16 -1 67 -46 67 -60 0 -5 5 -10 11
-10 15 0 80 -71 73 -81 -3 -5 -1 -9 5 -9 5 0 19 -21 32 -47 28 -60 76 -121
101 -128 10 -4 18 -12 18 -19 0 -7 11 -19 25 -26 14 -7 25 -17 25 -21 0 -4 7
-15 16 -23 8 -9 18 -32 21 -51 7 -44 -22 -125 -45 -126 -9 0 -25 -2 -36 -4
-11 -2 -20 3 -23 16 -3 10 -12 19 -19 19 -8 0 -14 4 -14 10 0 21 -80 63 -120
63 -22 0 -43 4 -46 8 -7 12 -24 11 -24 0 0 -5 7 -16 15 -25 14 -13 13 -16 -4
-25 -11 -6 -27 -19 -36 -28 -16 -16 -18 -16 -30 0 -27 37 -49 -69 -24 -116 7
-11 6 -23 -1 -35 -11 -16 -11 -16 -6 0 7 25 -10 31 -43 17 -29 -13 -41 -44
-41 -107 0 -34 48 -75 79 -67 32 8 52 35 41 55 -13 25 0 70 20 70 37 0 83
-107 56 -129 -6 -5 -27 -11 -46 -14 -106 -16 -122 -21 -136 -41 -12 -17 -16
-18 -23 -7 -12 19 -30 5 -24 -18 3 -12 -2 -20 -16 -24 -16 -4 -21 0 -22 16 0
12 -3 16 -6 9 -2 -6 -9 -9 -14 -6 -17 10 -50 -27 -43 -48 4 -13 0 -18 -14 -18
-11 0 -22 -6 -24 -12 -4 -10 -10 -10 -31 -1 -15 7 -27 8 -27 3 0 -5 -10 -12
-22 -16 -12 -4 -48 -31 -80 -62 l-57 -54 -36 21 c-20 11 -47 21 -60 21 -14 0
-48 9 -77 20 -63 24 -68 24 -68 5 0 -11 -11 -15 -41 -15 -32 0 -47 6 -72 31
-30 30 -30 32 -12 45 10 8 25 14 32 14 7 0 13 5 13 10 0 6 -18 10 -40 10 -22
0 -40 5 -40 10 0 6 -19 10 -42 10 -37 0 -40 1 -24 13 15 11 17 17 7 35 -6 12
-21 27 -32 33 -29 15 -60 93 -73 184 -4 22 -14 52 -25 75 -4 8 -4 26 0 40 12
44 10 138 -3 143 -17 5 8 36 39 48 33 12 28 29 -9 29 l-33 1 24 19 c13 11 34
20 47 20 13 0 28 9 34 20 6 11 19 20 29 20 23 0 43 23 36 41 -3 8 10 32 29 54
33 39 34 39 101 37 44 -1 74 -7 85 -17 14 -13 19 -13 36 0 11 8 14 15 7 15
-18 0 -16 30 1 30 9 0 12 7 9 21 -4 16 -2 20 8 17 8 -3 25 3 38 13 13 10 27
16 32 14 4 -3 15 5 23 17 8 13 37 34 63 48 26 14 50 28 53 31 3 4 15 9 28 13
12 4 22 11 22 15 0 5 12 21 26 36 22 24 25 34 19 69 -3 23 -7 57 -9 77 -2 20
-5 40 -8 45 -2 5 -10 28 -18 51 -7 23 -30 61 -51 83 -22 23 -42 52 -45 65 -10
42 -51 48 -291 50 -122 0 -220 -2 -217 -6 2 -4 -10 -10 -28 -14 -38 -7 -132
-33 -168 -46 -22 -8 -21 -9 8 -4 31 4 45 -8 20 -18 -7 -3 -2 -6 12 -7 14 -1
19 -4 13 -7 -7 -2 -13 -20 -13 -39 0 -67 -63 -47 -76 23 -8 44 -22 49 -81 29
-25 -9 -56 -16 -67 -15 -25 0 56 35 129 54 28 8 41 14 30 14 -11 0 -71 -13
-134 -29 -68 -18 -119 -26 -128 -21 -11 6 -3 11 29 19 117 31 262 63 343 77
94 17 311 29 327 19 5 -3 55 -7 111 -9 56 -2 136 -4 177 -6 l75 -2 6 34 c4 18
12 35 18 37 17 6 13 32 -5 32 -10 0 -14 6 -11 14 8 20 -66 63 -130 76 -35 8
-86 7 -190 -4 -78 -8 -146 -17 -151 -20 -5 -3 -24 -1 -42 4 -18 5 -38 6 -44 3
-6 -4 -39 -7 -74 -6 -59 2 -92 16 -92 41 0 18 93 188 125 227 18 22 42 59 54
83 12 23 25 42 30 42 4 0 19 22 32 50 13 27 32 52 42 55 9 4 15 11 12 16 -6 9
24 71 38 77 4 2 7 10 7 18 0 8 8 18 18 21 9 4 27 17 39 30 13 14 28 20 38 17
10 -4 30 8 57 36 30 30 43 38 49 29 6 -11 13 -10 33 1 14 7 26 17 26 22 0 4
20 8 45 8 35 0 52 -6 73 -25 21 -20 28 -22 30 -10 2 8 10 15 18 15 8 0 14 7
14 16 0 13 3 14 14 5 7 -6 20 -9 28 -6z m-1215 -1076 c1 -23 4 -43 5 -45 9 -8
48 10 48 22 0 14 12 19 22 9 3 -3 -3 -21 -12 -41 -15 -28 -17 -54 -15 -142 4
-117 42 -329 75 -413 23 -58 21 -77 -4 -28 -37 75 -107 432 -90 461 7 11 -8
38 -26 48 -15 8 -17 6 -13 -13 4 -19 2 -17 -16 8 -11 16 -29 33 -41 37 -16 6
-20 16 -20 58 0 48 2 52 33 65 48 21 53 19 54 -26z m-2477 -4239 c0 -5 -7 -10
-16 -10 -12 0 -14 -7 -10 -27 3 -16 1 -35 -5 -43 -8 -12 -9 -8 -5 15 l6 30
-20 -23 c-16 -19 -17 -27 -7 -43 10 -17 9 -22 -5 -30 -15 -8 -16 -13 -5 -31 9
-16 9 -22 0 -25 -7 -3 -13 -9 -13 -15 0 -12 -26 -38 -39 -38 -5 0 -17 -18 -27
-40 -10 -22 -21 -40 -25 -40 -4 0 -8 66 -8 147 -2 123 0 144 12 135 8 -7 17
-9 20 -5 4 3 7 1 7 -5 0 -6 6 -9 14 -6 8 3 17 1 20 -5 4 -6 22 7 43 29 34 38
63 52 63 30z m1471 -465 c3 -31 -4 -62 -19 -73 -15 -12 -13 -13 13 -10 17 2
36 11 43 21 25 33 62 14 42 -22 -8 -16 -7 -22 6 -29 12 -7 14 -14 6 -28 -5
-10 -10 -23 -10 -27 1 -17 -43 -67 -57 -67 -8 0 -15 -4 -15 -9 0 -5 -20 -14
-44 -20 -65 -16 -67 -31 -5 -24 l52 6 -7 -34 c-3 -19 -16 -47 -28 -63 -17 -24
-19 -33 -9 -48 7 -12 8 -18 1 -18 -6 0 -16 -13 -21 -29 -6 -16 -19 -31 -30
-34 -10 -3 -19 -13 -19 -23 0 -10 -8 -27 -18 -38 -23 -26 -115 -187 -110 -192
2 -2 26 25 53 60 27 34 59 70 72 79 21 16 22 16 20 -5 -4 -40 -30 -84 -59
-101 -19 -11 -28 -24 -28 -42 0 -14 -4 -25 -10 -25 -5 0 -15 -11 -22 -24 -21
-39 -90 -116 -104 -116 -7 0 -21 -13 -31 -30 -9 -16 -21 -30 -25 -30 -4 0 -8
-10 -7 -22 l0 -23 9 22 c10 24 50 51 50 33 0 -5 13 4 29 21 17 17 34 28 39 25
11 -6 -8 -86 -20 -86 -4 0 -8 -5 -8 -10 0 -15 -51 -91 -80 -118 l-25 -24 28
16 c34 21 35 6 2 -30 -14 -15 -25 -35 -25 -44 0 -10 -19 -33 -42 -53 -24 -19
-55 -45 -70 -58 -15 -13 -57 -42 -92 -64 -36 -22 -65 -45 -66 -51 0 -6 -12
-16 -27 -23 -16 -7 -45 -21 -65 -32 -20 -10 -44 -19 -53 -19 -9 0 -30 -9 -46
-20 -15 -12 -51 -27 -78 -36 -27 -8 -51 -20 -54 -27 -6 -17 -104 -48 -296 -94
-24 -6 -24 -5 -17 48 4 30 15 86 25 124 11 39 39 142 62 230 37 137 69 227 97
271 41 64 67 100 78 107 8 4 14 15 14 24 0 9 12 36 28 60 20 32 32 42 45 39
30 -7 47 4 48 33 0 14 3 20 6 14 10 -27 25 -12 21 22 -2 19 0 35 5 35 11 0 4
-94 -8 -124 -6 -13 -5 -17 3 -12 6 3 15 -1 20 -10 18 -31 32 -4 32 61 0 35 5
76 11 92 11 28 11 28 22 6 5 -13 15 -23 21 -23 11 0 76 60 76 71 0 6 43 53
137 152 18 19 26 38 25 56 -1 18 6 35 23 51 14 13 25 19 26 14 1 -5 4 2 8 15
9 33 27 37 35 9 5 -19 8 -20 16 -8 15 23 12 38 -7 43 -14 4 -13 5 4 6 12 0 25
6 28 11 4 6 14 8 24 5 11 -3 25 5 39 25 24 31 28 45 12 35 -12 -7 -13 24 -2
41 4 6 23 15 42 19 56 12 72 23 65 47 -7 19 12 41 80 98 15 12 15 11 3 -16 -7
-16 -26 -40 -41 -53 -15 -13 -25 -26 -22 -29 2 -3 13 5 24 16 10 12 22 22 26
22 8 0 93 88 89 93 -2 1 6 3 16 3 11 0 20 -5 21 -11z"/>
<path d="M4590 9945 c0 -16 -6 -25 -15 -25 -8 0 -15 7 -15 15 0 11 -11 15 -41
15 -38 0 -41 -2 -35 -23 3 -15 1 -24 -7 -25 -96 -9 -121 -18 -127 -41 -3 -14
-26 -39 -50 -56 -42 -30 -45 -35 -45 -78 0 -60 -14 -64 -32 -9 -15 43 -32 56
-34 25 0 -14 -2 -15 -6 -3 -9 23 -27 37 -41 32 -9 -3 -8 -9 3 -25 8 -12 15
-32 15 -44 0 -13 6 -23 13 -23 8 0 7 -4 -3 -10 -8 -5 -36 -10 -61 -10 -35 0
-51 -6 -67 -23 -28 -29 -28 -37 1 -37 12 0 17 -3 11 -8 -6 -4 -11 -22 -11 -39
l0 -33 59 0 c32 0 58 -4 58 -10 0 -5 -4 -10 -10 -10 -5 0 -7 -7 -4 -15 7 -18
-12 -20 -19 -2 -4 9 -8 9 -14 0 -4 -6 -24 -16 -43 -21 -25 -7 -29 -10 -12 -11
13 -1 22 -7 22 -17 0 -11 6 -14 20 -9 27 9 58 -2 63 -23 3 -10 5 -5 6 11 0 16
5 26 10 22 5 -3 11 5 14 17 l4 23 10 -24 10 -25 6 26 c4 16 1 37 -8 54 -8 16
-11 32 -7 36 6 6 163 50 304 84 172 41 429 54 645 33 62 -7 117 -8 121 -4 4 4
1 10 -6 12 -8 3 -28 21 -45 41 -107 118 -121 125 -268 136 -43 3 -102 25 -70
26 7 0 11 6 8 14 -3 7 -1 18 4 23 7 7 5 12 -5 16 -10 4 -16 1 -16 -7 0 -9 -12
-13 -37 -12 -27 1 -38 -3 -39 -14 -3 -36 -5 -41 -15 -34 -8 4 -7 9 2 14 10 7
10 12 1 23 -14 16 1 26 41 28 21 0 21 1 -2 12 -19 9 -25 9 -29 -1 -2 -6 -12
-12 -23 -12 -11 0 -19 -7 -19 -16 0 -11 -5 -14 -16 -10 -9 3 -18 6 -21 6 -3 0
0 7 7 14 8 11 9 20 1 33 -6 10 -11 12 -11 6 0 -18 -68 -16 -86 2 -24 23 -44
18 -44 -10z"/>
<path d="M3700 8657 c0 -22 -21 -26 -57 -11 -17 7 -40 11 -50 9 -10 -2 -40 -7
-66 -10 -42 -6 -46 -8 -32 -19 15 -11 14 -13 -10 -24 -15 -7 -23 -17 -19 -23
8 -14 8 -135 0 -210 -7 -72 12 -122 55 -144 28 -15 32 -15 48 -1 10 9 23 16
29 16 6 0 12 10 14 23 2 14 11 23 25 25 12 2 27 10 33 18 15 17 78 18 131 3
35 -11 46 -8 141 30 57 22 111 41 121 41 22 0 22 3 -5 44 -30 45 -96 88 -123
80 -31 -10 -47 -26 -62 -63 -26 -62 -65 -79 -102 -43 -42 40 -47 68 -38 232 2
26 -2 35 -15 38 -11 2 -18 -3 -18 -11z"/>
<path d="M7562 5027 c-8 -9 -22 -31 -31 -49 -58 -108 -136 -233 -271 -433 -15
-22 -36 -58 -48 -80 -11 -22 -32 -53 -47 -70 -14 -16 -34 -46 -44 -65 -26 -49
-61 -171 -61 -210 0 -19 -6 -41 -14 -49 -7 -9 -30 -61 -51 -116 -20 -55 -43
-107 -51 -116 -8 -8 -14 -21 -14 -27 0 -7 -4 -20 -9 -30 -5 -9 -14 -30 -20
-45 -6 -15 -15 -26 -19 -23 -11 7 -30 -129 -37 -269 -3 -60 -10 -139 -15 -175
-5 -36 -14 -99 -20 -140 -6 -41 -15 -95 -19 -120 -5 -25 -23 -130 -40 -235
-17 -104 -36 -212 -41 -240 -25 -134 -43 -249 -51 -340 -5 -55 -16 -121 -24
-147 -8 -26 -15 -65 -15 -86 0 -56 -28 -196 -40 -200 -5 -2 -10 -29 -10 -60 0
-70 -8 -102 -25 -102 -18 0 -27 -32 -20 -63 5 -17 2 -26 -9 -30 -12 -5 -16
-20 -16 -58 0 -42 -5 -56 -24 -74 -28 -26 -41 -95 -18 -95 11 0 13 -11 10 -50
-3 -28 -1 -53 3 -56 16 -9 -24 -74 -45 -74 -12 0 -26 -10 -31 -23 -7 -15 -18
-21 -33 -20 -12 2 -22 -2 -22 -7 0 -5 -14 -7 -32 -3 l-33 6 25 -20 c23 -20 50
-21 50 -2 0 5 11 9 24 9 13 0 27 6 30 13 5 9 7 9 12 0 10 -22 42 -15 46 10 2
17 9 21 26 19 24 -4 72 37 72 62 0 6 4 16 8 21 5 6 19 44 32 85 13 41 28 84
35 95 9 15 11 51 6 135 -3 63 -3 140 1 170 3 30 7 89 7 130 1 41 12 124 26
185 14 60 25 139 25 175 0 64 12 130 43 241 9 30 16 73 15 95 0 36 24 137 42
174 16 32 43 125 47 159 2 20 11 55 19 79 23 71 54 219 54 264 0 72 37 169 83
217 18 18 74 62 126 97 52 35 87 64 78 64 -20 0 -142 -57 -222 -104 -33 -19
-63 -35 -67 -36 -15 0 -8 41 7 46 8 4 12 10 10 15 -7 11 23 59 54 84 59 49
194 134 221 140 16 4 30 11 30 16 0 16 -36 10 -63 -11 -14 -11 -30 -20 -36
-20 -13 0 -81 -31 -101 -46 -8 -6 -24 -13 -35 -16 -18 -4 -20 -1 -16 46 3 49
31 95 56 96 6 0 17 11 25 24 25 41 133 121 201 149 60 25 296 87 384 101 79
13 95 18 89 27 -3 5 -15 7 -27 4 -21 -4 -128 -15 -193 -19 -16 -2 -36 -6 -42
-10 -24 -14 -322 -89 -329 -82 -8 7 93 96 109 96 13 0 47 41 48 58 0 6 4 12
10 12 5 0 16 15 25 34 9 19 25 36 36 39 22 6 26 37 5 37 -7 0 -29 -12 -49 -27
-19 -16 -49 -36 -66 -45 -17 -10 -34 -25 -38 -35 -15 -38 -137 -133 -151 -117
-4 4 -1 9 6 11 6 3 12 10 12 17 0 7 11 25 25 40 14 15 25 31 25 36 0 5 10 17
23 27 13 10 27 26 33 35 27 49 234 240 330 306 11 7 41 28 68 47 27 19 54 35
60 35 6 0 25 11 41 25 22 18 26 24 13 25 -9 0 -23 -6 -30 -13 -7 -7 -24 -18
-38 -24 -29 -15 -190 -127 -199 -140 -3 -4 -22 -20 -41 -35 -19 -15 -89 -79
-155 -142 -118 -115 -151 -140 -119 -91 18 28 12 44 -9 27 -8 -7 -16 -9 -19
-7 -3 3 -9 -9 -14 -27 l-8 -33 -3 38 c-3 21 0 44 5 50 6 7 27 44 47 82 20 39
49 90 65 115 16 25 37 59 46 75 9 17 44 73 79 125 34 52 77 120 96 150 18 30
36 57 40 60 19 15 119 206 117 223 -3 18 -4 19 -16 4z"/>
<path d="M6909 4494 c0 -21 -2 -55 -4 -74 -3 -34 -9 -146 -21 -397 -3 -76 -2
-123 4 -123 5 0 12 27 14 61 3 44 9 64 21 71 12 6 15 14 9 25 -12 20 3 84 21
95 11 6 14 25 10 87 -4 63 -1 84 12 105 12 18 15 36 11 60 -4 20 -2 37 4 41
22 13 -3 70 -27 60 -9 -3 -24 2 -34 11 -18 16 -19 15 -20 -22z"/>
<path d="M7790 3808 c-123 -15 -140 -18 -140 -29 0 -7 17 -7 48 -2 126 21 871
-5 941 -33 18 -8 45 -14 60 -14 22 1 19 3 -14 14 -185 62 -644 94 -895 64z"/>
<path d="M9048 663 c21 -8 13 -21 -10 -16 -13 4 54 -33 147 -82 94 -48 192
-102 220 -121 57 -38 75 -35 29 4 -16 15 -36 40 -44 55 -14 28 -90 97 -108 97
-5 0 -21 9 -35 20 -18 15 -26 17 -30 8 -3 -11 -9 -11 -28 0 -13 7 -37 14 -54
16 -16 2 -43 9 -58 15 -16 6 -31 11 -35 10 -4 0 -1 -3 6 -6z"/>
</g>
</svg>
